<?xml version="1.0" encoding="UTF-8" standalone="no"?>
<!DOCTYPE svg PUBLIC "-//W3C//DTD SVG 1.1//EN" "http://www.w3.org/Graphics/SVG/1.1/DTD/svg11.dtd">
<svg width="100%" height="100%" viewBox="0 0 200 200" version="1.1" xmlns="http://www.w3.org/2000/svg" xmlns:xlink="http://www.w3.org/1999/xlink" xml:space="preserve" xmlns:serif="http://www.serif.com/" style="fill-rule:evenodd;clip-rule:evenodd;stroke-linejoin:round;stroke-miterlimit:2;">
    <g transform="matrix(1,0,0,1.17021,0,-17.5319)">
        <path d="M0,103C0,77.06 200,77.06 200,103C200,128.94 155.192,150 100,150C44.808,150 0,128.94 0,103Z"/>
    </g>
    <path d="M0.002,102.822C0.798,72.705 199.204,72.705 199.998,102.822L200,103C200,128.94 155.192,150 100,150C44.808,150 0,128.94 0,103L0.002,102.822Z" style="fill:rgb(235,235,235);"/>
    <path d="M0.023,103.997C0.007,103.663 0,103.332 0,103L0.002,102.822C0.798,72.705 199.204,72.705 199.998,102.822L200,103C200,128.94 155.192,150 100,150C45.52,150 1.158,129.48 0.023,103.999C0.184,103.996 0.336,103.954 0.47,103.883C0.61,103.808 0.73,103.701 0.82,103.572C0.568,103.909 0.127,103.984 0.023,103.997ZM198.998,102.845L199,103.005C198.999,113.085 191.947,122.35 180.156,129.908C162.075,141.498 132.891,149 100,149C67.109,149 37.925,141.498 19.844,129.908C8.054,122.35 1.003,113.087 1,103.005L1.002,102.841C1.058,100.834 2.141,99.001 4.021,97.295C6.067,95.438 9.034,93.756 12.746,92.227C30.582,84.881 65.293,81.235 100.001,81.235C134.708,81.235 169.419,84.881 187.255,92.227C190.967,93.756 193.933,95.438 195.979,97.295C197.86,99.002 198.944,100.837 198.998,102.845ZM0.995,103.102L0.994,103.105L0.995,103.102ZM1,103.018L0.997,103.077L1,103.018Z"/>
    <g transform="matrix(0.967525,0,0,0.913552,3.24749,10.7016)">
        <path d="M0.002,102.822C0.798,72.705 199.204,72.705 199.998,102.822L200,103C200,128.94 155.192,150 100,150C44.808,150 0,128.94 0,103L0.002,102.822Z" style="fill-opacity:0.59;"/>
    </g>
</svg>
